<svg width="24" height="24" viewBox="0 0 24 24" fill="none" xmlns="http://www.w3.org/2000/svg">
<path d="M11.1781 4.431C11.2698 4.29776 11.3926 4.18882 11.5357 4.11355C11.6789 4.03829 11.8383 3.99897 12.0001 3.99897C12.1618 3.99897 12.3212 4.03829 12.4644 4.11355C12.6076 4.18882 12.7303 4.29776 12.8221 4.431L21.8221 17.431C21.9262 17.5809 21.9873 17.7566 21.9987 17.9388C22.0101 18.121 21.9713 18.3029 21.8865 18.4646C21.8018 18.6263 21.6744 18.7618 21.5181 18.8561C21.3618 18.9505 21.1826 19.0003 21.0001 19H3.00006C2.8179 18.9992 2.6394 18.9489 2.48374 18.8542C2.32808 18.7596 2.20116 18.6244 2.11663 18.463C2.03209 18.3017 1.99314 18.1203 2.00397 17.9385C2.01479 17.7566 2.07498 17.5812 2.17806 17.431L11.1781 4.431Z" fill="#A1A1A1"/>
</svg>
